<?xml version="1.0" standalone="no"?>
<!DOCTYPE svg PUBLIC "-//W3C//DTD SVG 20010904//EN"
 "http://www.w3.org/TR/2001/REC-SVG-20010904/DTD/svg10.dtd">
<svg version="1.0" xmlns="http://www.w3.org/2000/svg"
 width="371.000000pt" height="247.000000pt" viewBox="0 0 371.000000 247.000000"
 preserveAspectRatio="xMidYMid meet">

<g transform="translate(0.000000,247.000000) scale(0.100000,-0.100000)"
fill="#ffffff" stroke="none">
<path d="M1820 2405 c-450 -34 -876 -57 -1130 -62 -159 -2 -307 -10 -352 -18
-143 -25 -237 -84 -276 -174 -32 -75 -25 -530 14 -896 24 -234 73 -514 118
-683 8 -30 13 -59 10 -66 -8 -20 17 -33 86 -44 172 -28 384 -26 415 5 8 8 15
30 15 48 0 55 36 137 78 178 53 51 124 77 215 77 187 0 313 -87 413 -283 49
-98 75 -123 107 -100 7 5 206 6 462 3 514 -7 479 -13 495 82 5 31 17 73 28 95
68 133 250 210 430 183 183 -28 304 -130 336 -282 23 -108 23 -108 213 -108
180 0 187 2 199 66 4 20 4 162 1 317 -7 374 -28 501 -105 637 -38 66 -394 540
-458 610 -66 71 -141 127 -186 141 -54 16 -195 11 -313 -10 -60 -12 -115 -21
-121 -21 -6 0 -18 35 -27 78 -21 94 -61 162 -109 185 -109 52 -267 64 -558 42z
m335 -150 c86 -24 150 -86 190 -185 15 -37 20 -88 26 -290 4 -135 11 -327 15
-427 l7 -183 -124 0 c-68 -1 -407 -1 -754 0 -589 1 -932 -8 -1170 -30 -61 -5
-102 -5 -105 0 -3 6 -11 76 -18 157 -7 82 -24 240 -38 353 -25 203 -35 425
-21 467 18 52 107 69 442 83 301 13 956 47 1225 64 206 14 245 12 325 -9z
m796 -294 c56 -26 128 -96 201 -193 116 -154 281 -396 310 -453 27 -53 68
-158 68 -174 0 -4 -46 -1 -102 7 -61 7 -279 15 -536 19 -399 5 -432 7 -418 22
22 25 36 218 36 517 l0 262 93 10 c148 16 293 9 348 -17z m-2396 -943 c165
-13 796 -15 1940 -8 546 4 760 2 885 -8 91 -8 167 -16 170 -19 3 -2 6 -109 8
-236 2 -168 0 -238 -9 -254 -12 -21 -66 -53 -116 -68 -22 -6 -23 -3 -23 43 0
146 -94 284 -237 348 -229 103 -548 56 -692 -102 -48 -52 -81 -124 -81 -176 0
-17 -6 -18 -82 -11 -133 13 -319 7 -528 -17 -107 -12 -203 -22 -213 -23 -13
-2 -23 13 -38 57 -39 114 -120 201 -243 261 -109 53 -181 68 -305 62 -124 -5
-162 -16 -228 -61 -64 -44 -99 -96 -120 -181 l-18 -70 -165 -5 c-91 -3 -168
-1 -171 3 -3 4 -11 78 -18 165 -8 86 -16 195 -20 241 l-7 84 80 -6 c45 -4 149
-12 231 -19z"/>
<path d="M2580 1810 c-21 -21 -22 -27 -14 -109 5 -47 9 -140 9 -206 0 -66 4
-126 8 -132 5 -8 32 -13 70 -13 34 0 134 -12 222 -26 202 -32 345 -36 375 -9
11 10 20 26 20 35 0 26 -203 320 -261 378 -71 71 -130 92 -285 99 -116 6 -122
5 -144 -17z m285 -100 c47 -23 80 -61 178 -205 l68 -100 -33 -3 c-18 -1 -104
11 -191 28 -87 16 -177 30 -199 30 -32 0 -39 3 -34 16 3 9 6 69 6 135 l0 119
82 0 c61 0 92 -5 123 -20z"/>
<path d="M995 656 c-101 -47 -187 -177 -188 -286 -1 -141 89 -262 215 -285 59
-11 139 18 191 69 128 123 150 331 49 440 -81 87 -170 108 -267 62z m136 -132
c81 -42 75 -190 -12 -269 -49 -44 -89 -47 -124 -9 -73 79 -48 201 54 265 53
34 45 33 82 13z"/>
<path d="M2824 647 c-40 -15 -136 -110 -163 -161 -69 -132 -43 -324 57 -406
105 -86 297 -46 374 80 15 25 35 76 45 114 14 59 15 79 5 137 -21 119 -74 204
-149 235 -39 17 -126 17 -169 1z m140 -153 c66 -66 58 -215 -15 -283 -35 -33
-92 -45 -127 -27 -71 37 -81 180 -17 265 53 73 114 90 159 45z"/>
</g>
</svg>
