<svg width="30" height="27" viewBox="0 0 30 27" fill="none" xmlns="http://www.w3.org/2000/svg">
<path d="M26.05 3.76252C25.4116 3.12378 24.6535 2.61708 23.8192 2.27138C22.9849 1.92568 22.0906 1.74774 21.1875 1.74774C20.2844 1.74774 19.3901 1.92568 18.5558 2.27138C17.7215 2.61708 16.9634 3.12378 16.325 3.76252L15 5.08752L13.675 3.76252C12.3854 2.47291 10.6363 1.74841 8.8125 1.74841C6.9887 1.74841 5.23961 2.47291 3.95 3.76252C2.66038 5.05214 1.93588 6.80123 1.93588 8.62502C1.93588 10.4488 2.66038 12.1979 3.95 13.4875L15 24.5375L26.05 13.4875C26.6887 12.8491 27.1954 12.091 27.5411 11.2567C27.8868 10.4224 28.0648 9.52813 28.0648 8.62502C28.0648 7.72191 27.8868 6.82765 27.5411 5.99333C27.1954 5.15901 26.6887 4.40097 26.05 3.76252Z" stroke="black" stroke-width="3" stroke-linecap="round" stroke-linejoin="round"/>
</svg>
