<svg width="51" height="51" viewBox="0 0 51 51" fill="none" xmlns="http://www.w3.org/2000/svg">
<path d="M47.9778 18.4592C48.4148 9.56905 42.3392 6 35.3836 6C31.3766 6 25.5001 10.7363 25.5001 10.7363C25.5001 10.7363 19.6235 6 15.6165 6C8.66098 6 2.5837 8.53078 3.02237 18.4592C3.46103 28.3877 25.5001 45 25.5001 45C25.5001 45 47.5408 27.3494 47.9778 18.4592Z" fill="#FF4141"/>
<path d="M44.285 9.79622C43.1997 8.71036 41.911 7.84897 40.4926 7.26128C39.0743 6.67358 37.554 6.37109 36.0188 6.37109C34.4835 6.37109 32.9632 6.67358 31.5449 7.26128C30.1265 7.84897 28.8379 8.71036 27.7525 9.79622L25.5 12.0487L23.2475 9.79622C21.0552 7.60388 18.0817 6.37223 14.9813 6.37223C11.8808 6.37223 8.90735 7.60388 6.71501 9.79622C4.52266 11.9886 3.29102 14.962 3.29102 18.0625C3.29102 21.1629 4.52266 24.1364 6.71501 26.3287L25.5 45.1137L44.285 26.3287C45.3709 25.2434 46.2323 23.9547 46.82 22.5364C47.4076 21.118 47.7101 19.5978 47.7101 18.0625C47.7101 16.5272 47.4076 15.0069 46.82 13.5886C46.2323 12.1702 45.3709 10.8816 44.285 9.79622Z" stroke="black" stroke-width="4" stroke-linecap="round" stroke-linejoin="round"/>
</svg>
