<svg width="30" height="30" viewBox="0 0 30 30" fill="none" xmlns="http://www.w3.org/2000/svg">
<path d="M26.9882 11.7088C27.2212 6.9218 23.9809 5 20.2713 5C18.1342 5 15 7.55034 15 7.55034C15 7.55034 11.8659 5 9.72883 5C6.01919 5 2.77798 6.36273 3.01193 11.7088C3.24588 17.0549 15 26 15 26C15 26 26.7551 16.4958 26.9882 11.7088Z" fill="#FF4141"/>
<path d="M26.0499 5.76252C25.4115 5.12378 24.6534 4.61708 23.8191 4.27138C22.9848 3.92568 22.0905 3.74774 21.1874 3.74774C20.2843 3.74774 19.39 3.92568 18.5557 4.27138C17.7214 4.61708 16.9634 5.12378 16.3249 5.76252L14.9999 7.08752L13.6749 5.76252C12.3853 4.47291 10.6362 3.74841 8.8124 3.74841C6.98861 3.74841 5.23952 4.47291 3.9499 5.76252C2.66029 7.05214 1.93579 8.80123 1.93579 10.625C1.93579 12.4488 2.66029 14.1979 3.9499 15.4875L14.9999 26.5375L26.0499 15.4875C26.6886 14.8491 27.1953 14.091 27.541 13.2567C27.8868 12.4224 28.0647 11.5281 28.0647 10.625C28.0647 9.72191 27.8868 8.82765 27.541 7.99333C27.1953 7.15901 26.6886 6.40097 26.0499 5.76252Z" stroke="black" stroke-width="3" stroke-linecap="round" stroke-linejoin="round"/>
</svg>
