<svg width="32" height="28" viewBox="0 0 32 28" fill="none" xmlns="http://www.w3.org/2000/svg">
<path d="M27.7217 4.1491C27.0407 3.46777 26.2321 2.9273 25.3422 2.55855C24.4522 2.1898 23.4984 2 22.5351 2C21.5717 2 20.6179 2.1898 19.7279 2.55855C18.838 2.9273 18.0294 3.46777 17.3484 4.1491L15.9351 5.56243L14.5217 4.1491C13.1461 2.77351 11.2804 2.00071 9.33505 2.00071C7.38968 2.00071 5.52398 2.77351 4.14839 4.1491C2.7728 5.52469 2 7.39039 2 9.33577C2 11.2811 2.7728 13.1468 4.14839 14.5224L5.56172 15.9358L15.9351 26.3091L26.3084 15.9358L27.7217 14.5224C28.403 13.8414 28.9435 13.0329 29.3123 12.1429C29.681 11.253 29.8708 10.2991 29.8708 9.33577C29.8708 8.37245 29.681 7.41857 29.3123 6.52863C28.9435 5.63868 28.403 4.83011 27.7217 4.1491V4.1491Z" stroke="white" stroke-width="3" stroke-linecap="round" stroke-linejoin="round"/>
</svg>
