<svg width="35" height="32" viewBox="0 0 35 32" fill="none" xmlns="http://www.w3.org/2000/svg">
<path d="M13.6666 30C14.403 30 14.9999 29.403 14.9999 28.6666C14.9999 27.9303 14.403 27.3333 13.6666 27.3333C12.9302 27.3333 12.3333 27.9303 12.3333 28.6666C12.3333 29.403 12.9302 30 13.6666 30Z" stroke="white" stroke-width="3" stroke-linecap="round" stroke-linejoin="round"/>
<path d="M28.3333 30C29.0697 30 29.6667 29.403 29.6667 28.6666C29.6667 27.9303 29.0697 27.3333 28.3333 27.3333C27.597 27.3333 27 27.9303 27 28.6666C27 29.403 27.597 30 28.3333 30Z" stroke="white" stroke-width="3" stroke-linecap="round" stroke-linejoin="round"/>
<path d="M3 2H8.33333L11.9067 19.8533C12.0286 20.4672 12.3625 21.0186 12.8501 21.4111C13.3376 21.8035 13.9476 22.012 14.5733 22H27.5333C28.1591 22.012 28.7691 21.8035 29.2566 21.4111C29.7441 21.0186 30.0781 20.4672 30.2 19.8533L32.3333 8.66667H9.66667" stroke="white" stroke-width="3" stroke-linecap="round" stroke-linejoin="round"/>
</svg>
