<svg width="56" height="56" viewBox="0 0 56 56" fill="none" xmlns="http://www.w3.org/2000/svg">
<path d="M54.75 28C54.75 42.7736 42.7736 54.75 28 54.75C13.2264 54.75 1.25 42.7736 1.25 28C1.25 13.2264 13.2264 1.25 28 1.25C42.7736 1.25 54.75 13.2264 54.75 28Z" stroke="white" stroke-width="2"/>
<path fill-rule="evenodd" clip-rule="evenodd" d="M42.9134 14.9896L37.4435 42.5781C37.4435 42.5781 36.6775 44.4932 34.571 43.5716L26.6279 37.4806L26.7792 37.599L21.7881 42.1592C21.7881 42.1592 21.3931 42.4585 20.9742 42.267L21.2402 39.9164L21.9797 33.6613C21.9797 33.6613 35.9834 21.0699 36.5579 20.5313C37.1324 20.0047 36.9409 19.885 36.9409 19.885C36.9888 19.2386 35.9116 19.885 35.9116 19.885L17.3477 31.6744L17.3476 31.6744L9.61561 29.0771C9.61561 29.0771 8.43068 28.6582 8.31099 27.7366C8.1913 26.815 9.65152 26.3243 9.65152 26.3243L40.3879 14.2715C40.3879 14.2595 42.9134 13.1464 42.9134 14.9896Z" fill="white"/>
</svg>
