<svg width="50" height="50" viewBox="0 0 50 50" fill="none" xmlns="http://www.w3.org/2000/svg">
<path fill-rule="evenodd" clip-rule="evenodd" d="M42.043 8.03839C37.455 3.44299 31.3426 0.912185 24.838 0.904785C11.4366 0.904785 0.521577 11.8124 0.521577 25.2212C0.521577 29.5058 1.63898 33.6942 3.77018 37.3794L0.321777 49.9816L13.2126 46.5998C16.7646 48.5386 20.7606 49.5598 24.8306 49.5598H24.838C38.2394 49.5598 49.147 38.6522 49.1544 25.2434C49.1618 18.7462 46.6384 12.6338 42.043 8.03839ZM24.8454 45.4528H24.838C21.212 45.4528 17.6526 44.476 14.552 42.6334L13.812 42.1968L6.16038 44.2022L8.20278 36.743L7.72178 35.9808C5.70158 32.7618 4.62858 29.047 4.62858 25.2212C4.63598 14.0768 13.701 5.01179 24.8528 5.01179C30.2548 5.01179 35.3238 7.12078 39.1422 10.9392C42.9606 14.7576 45.0622 19.8414 45.0548 25.236C45.0548 36.3878 35.9824 45.4528 24.8454 45.4528ZM35.9306 30.3124C35.3238 30.009 32.3342 28.5364 31.7792 28.3366C31.2242 28.1368 30.8172 28.0332 30.4102 28.64C30.0032 29.2468 28.8414 30.6158 28.4862 31.0228C28.131 31.4298 27.7758 31.4816 27.169 31.1782C26.5622 30.8748 24.6012 30.231 22.285 28.159C20.4794 26.5458 19.2584 24.5552 18.9032 23.9484C18.548 23.3416 18.8662 23.0086 19.1696 22.7052C19.4434 22.4314 19.7764 21.9948 20.0798 21.6396C20.3832 21.2844 20.4868 21.0328 20.6866 20.6258C20.8864 20.2188 20.7902 19.8636 20.6348 19.5602C20.4794 19.2568 19.2658 16.2672 18.7626 15.0462C18.2668 13.8622 17.771 14.025 17.3936 14.0028C17.0384 13.988 16.6314 13.9806 16.2318 13.9806C15.8248 13.9806 15.1662 14.136 14.6112 14.7428C14.0562 15.3496 12.4874 16.8222 12.4874 19.8118C12.4874 22.8014 14.663 25.6948 14.9664 26.0944C15.2698 26.5014 19.251 32.636 25.3486 35.2704C26.799 35.8994 27.9312 36.2694 28.8118 36.5506C30.2696 37.0168 31.5942 36.9502 32.6376 36.7948C33.8068 36.6172 36.234 35.3222 36.7372 33.9088C37.2404 32.488 37.2404 31.2744 37.0924 31.0228C36.9444 30.7712 36.5374 30.6232 35.9306 30.3124Z" fill="white"/>
</svg>
